<!-- Generator: Adobe Illustrator 23.0.6, SVG Export Plug-In  -->
<svg version="1.1" xmlns="http://www.w3.org/2000/svg" xmlns:xlink="http://www.w3.org/1999/xlink" x="0px" y="0px"
	 width="157.38px" height="41.12px" viewBox="0 0 157.38 41.12" style="enable-background:new 0 0 157.38 41.12;"
	 xml:space="preserve">
<style type="text/css">
	.st0{fill:#000F9F;}
	.st1{fill:#00ADEE;}
	.st2{fill:#FFFFFF;}
</style>
<defs>
</defs>
<g>
	<g>
		<path class="st0" d="M59.35,19.43c0-10.69-13.28-19.41-29.67-19.41C13.29,0.02,0,8.74,0,19.43c0,0.28,0,1.04,0,1.14
			C0,31.91,11.61,41.1,29.67,41.1c18.17,0,29.68-9.18,29.68-20.53C59.35,20.17,59.35,19.94,59.35,19.43z"/>
		<path class="st1" d="M58.21,19.42c0,10.08-12.77,18.25-28.53,18.25c-15.76,0-28.53-8.17-28.53-18.25
			c0-10.08,12.77-18.25,28.53-18.25C45.44,1.17,58.21,9.34,58.21,19.42z"/>
		<g>
			<path class="st2" d="M20.21,13.66c-0.02,0.03-0.3,0.32-0.12,0.56c0.45,0.58,1.84,0.91,3.25,0.59c0.84-0.19,1.91-1.04,2.95-1.87
				c1.13-0.9,2.24-1.79,3.37-2.15c1.19-0.38,1.95-0.22,2.46-0.06c0.55,0.16,1.2,0.53,2.24,1.31c1.95,1.47,9.8,8.32,11.16,9.5
				c1.09-0.49,5.95-2.58,12.54-4.04c-0.57-3.52-2.71-6.73-5.96-9.37c-4.52,1.9-10.05,2.89-15.45,0.25c-0.03-0.01-2.95-1.4-5.84-1.33
				c-4.29,0.1-6.15,1.96-8.11,3.92L20.21,13.66z"/>
			<path class="st2" d="M45.19,22.29c-0.09-0.08-9.23-8.08-11.3-9.63c-1.2-0.9-1.86-1.13-2.56-1.22c-0.36-0.05-0.87,0.02-1.22,0.12
				c-0.96,0.26-2.22,1.1-3.34,1.99c-1.16,0.92-2.25,1.79-3.26,2.02c-1.29,0.29-2.87-0.05-3.59-0.54c-0.29-0.2-0.5-0.42-0.6-0.65
				c-0.27-0.62,0.22-1.11,0.31-1.19l2.52-2.73c0.29-0.29,0.59-0.59,0.89-0.87c-0.81,0.11-1.57,0.31-2.3,0.52
				c-0.91,0.26-1.79,0.5-2.68,0.5c-0.37,0-2.36-0.33-2.74-0.43c-2.28-0.62-4.28-1.23-7.28-2.63c-3.58,2.67-5.98,6.01-6.67,9.68
				c0.52,0.14,1.34,0.38,1.69,0.46c8.11,1.8,10.64,3.66,11.1,4.05c0.5-0.55,1.21-0.9,2.01-0.9c0.9,0,1.71,0.45,2.2,1.15
				c0.46-0.37,1.11-0.68,1.93-0.68c0.38,0,0.77,0.07,1.16,0.2c0.92,0.31,1.39,0.92,1.63,1.47c0.31-0.14,0.68-0.24,1.13-0.24
				c0.44,0,0.89,0.1,1.35,0.3c1.5,0.64,1.73,2.11,1.59,3.22c0.11-0.01,0.21-0.02,0.32-0.02c1.77,0,3.22,1.44,3.22,3.22
				c0,0.55-0.14,1.07-0.38,1.52c0.48,0.27,1.71,0.88,2.79,0.75c0.86-0.11,1.19-0.4,1.31-0.57c0.08-0.11,0.17-0.25,0.09-0.34
				l-2.29-2.54c0,0-0.38-0.36-0.25-0.49c0.13-0.14,0.36,0.06,0.53,0.2c1.17,0.97,2.59,2.44,2.59,2.44c0.02,0.02,0.12,0.2,0.64,0.3
				c0.45,0.08,1.25,0.03,1.81-0.42c0.14-0.12,0.28-0.26,0.4-0.41c-0.01,0.01-0.02,0.02-0.03,0.02c0.59-0.75-0.06-1.51-0.06-1.51
				l-2.67-3c0,0-0.38-0.35-0.25-0.5c0.12-0.12,0.36,0.06,0.53,0.2c0.85,0.71,2.04,1.91,3.19,3.03c0.22,0.16,1.23,0.79,2.56-0.09
				c0.81-0.53,0.97-1.18,0.95-1.67c-0.06-0.65-0.56-1.11-0.56-1.11l-3.65-3.67c0,0-0.39-0.33-0.25-0.5c0.11-0.14,0.36,0.06,0.53,0.2
				c1.16,0.97,4.31,3.86,4.31,3.86c0.04,0.03,1.13,0.81,2.48-0.05c0.48-0.31,0.79-0.77,0.81-1.31
				C45.85,22.84,45.19,22.29,45.19,22.29z"/>
			<path class="st2" d="M27.49,26.94c-0.57-0.01-1.19,0.33-1.27,0.28c-0.04-0.03,0.03-0.26,0.09-0.39c0.05-0.13,0.8-2.37-1.02-3.15
				c-1.39-0.6-2.24,0.07-2.53,0.38c-0.08,0.08-0.11,0.07-0.12-0.03c-0.03-0.4-0.21-1.5-1.41-1.86c-1.72-0.53-2.82,0.67-3.1,1.1
				c-0.13-0.98-0.95-1.74-1.96-1.74c-1.1,0-1.99,0.89-1.99,1.99c0,1.1,0.89,1.99,1.99,1.99c0.53,0,1.02-0.21,1.38-0.56
				c0.01,0.01,0.02,0.03,0.01,0.07c-0.08,0.49-0.24,2.28,1.64,3.01c0.75,0.29,1.39,0.07,1.92-0.3c0.16-0.11,0.18-0.06,0.16,0.08
				c-0.07,0.46,0.02,1.45,1.4,2.01c1.05,0.43,1.67-0.01,2.08-0.39c0.18-0.16,0.23-0.14,0.24,0.11c0.05,1.33,1.16,2.39,2.5,2.39
				c1.38,0,2.51-1.12,2.51-2.5C29.99,28.06,28.87,26.96,27.49,26.94z"/>
		</g>
		<path class="st0" d="M45.55,21.33c-2.81-2.46-9.32-8.11-11.08-9.43c-1.01-0.76-1.69-1.16-2.3-1.34c-0.27-0.08-0.65-0.17-1.13-0.18
			c-0.45,0-0.93,0.08-1.43,0.24c-1.14,0.36-2.27,1.26-3.37,2.13l-0.06,0.04c-1.02,0.81-2.08,1.65-2.88,1.83
			c-0.35,0.08-0.71,0.12-1.07,0.12c-0.9,0-1.7-0.26-2-0.64c-0.05-0.06-0.02-0.17,0.1-0.31l0.02-0.02l2.48-2.67
			c1.94-1.94,3.77-3.77,7.99-3.87c0.07,0,0.14,0,0.21,0c2.62,0,5.25,1.18,5.54,1.31c2.46,1.2,5,1.81,7.56,1.81
			c2.66,0,5.41-0.66,8.29-1.99c-0.32-0.27-0.66-0.54-1-0.79c-2.54,1.1-4.95,1.66-7.28,1.65c-2.38,0-4.76-0.57-7.07-1.7
			c-0.12-0.06-3.02-1.42-6.03-1.43c-0.08,0-0.16,0-0.24,0c-3.54,0.08-5.54,1.34-6.88,2.44c-1.3,0.03-2.43,0.35-3.43,0.63
			c-0.89,0.25-1.67,0.46-2.42,0.46c-0.31,0-0.87-0.03-0.92-0.03c-0.87-0.03-5.23-1.1-8.7-2.41c-0.35,0.25-0.7,0.51-1.03,0.77
			c3.62,1.49,8.04,2.64,9.43,2.73c0.39,0.03,0.8,0.07,1.21,0.07c0.92,0,1.84-0.26,2.73-0.51c0.53-0.15,1.1-0.31,1.71-0.42
			c-0.16,0.16-0.33,0.32-0.49,0.49l-2.52,2.72c-0.2,0.2-0.63,0.73-0.34,1.39c0.11,0.27,0.34,0.52,0.66,0.73
			c0.6,0.4,1.67,0.68,2.67,0.68c0.38,0,0.74-0.04,1.07-0.11c1.05-0.24,2.16-1.12,3.33-2.05c0.93-0.74,2.26-1.68,3.28-1.96
			c0.28-0.08,0.63-0.13,0.91-0.13c0.08,0,0.16,0,0.24,0.01c0.67,0.09,1.32,0.31,2.48,1.18c2.07,1.55,11.2,9.55,11.29,9.63
			c0.01,0.01,0.59,0.51,0.55,1.34c-0.02,0.47-0.28,0.88-0.73,1.17c-0.39,0.25-0.79,0.37-1.2,0.37c-0.61,0-1.03-0.29-1.06-0.31
			c-0.03-0.03-3.17-2.9-4.32-3.86c-0.18-0.15-0.36-0.29-0.54-0.29c-0.1,0-0.18,0.04-0.24,0.11c-0.18,0.22,0.02,0.53,0.26,0.74
			l3.66,3.68c0.01,0,0.46,0.43,0.51,0.99c0.03,0.61-0.26,1.12-0.87,1.52c-0.43,0.28-0.87,0.43-1.3,0.43c-0.56,0-0.96-0.26-1.04-0.32
			l-0.52-0.52c-0.96-0.94-1.95-1.92-2.67-2.52c-0.18-0.15-0.37-0.28-0.55-0.28c-0.09,0-0.17,0.03-0.23,0.1
			c-0.08,0.09-0.14,0.26,0.07,0.53c0.09,0.11,0.18,0.21,0.18,0.21l2.67,3c0.02,0.03,0.55,0.65,0.06,1.28l-0.09,0.12
			c-0.08,0.09-0.17,0.17-0.25,0.24c-0.46,0.37-1.06,0.41-1.3,0.41c-0.13,0-0.25-0.01-0.36-0.03c-0.26-0.05-0.44-0.12-0.53-0.22
			l-0.03-0.03c-0.15-0.15-1.49-1.52-2.6-2.45c-0.15-0.12-0.33-0.28-0.52-0.28c-0.09,0-0.18,0.04-0.24,0.11
			c-0.22,0.24,0.11,0.6,0.25,0.73l2.28,2.51c0,0.02-0.03,0.07-0.09,0.15c-0.08,0.11-0.36,0.39-1.18,0.49
			c-0.1,0.01-0.2,0.02-0.3,0.02c-0.85,0-1.76-0.41-2.23-0.66c0.21-0.45,0.32-0.95,0.32-1.44c0-1.87-1.52-3.4-3.39-3.4
			c-0.04,0-0.08,0-0.12,0c0.06-0.86-0.06-2.48-1.72-3.19c-0.48-0.21-0.96-0.31-1.42-0.31c-0.36,0-0.71,0.06-1.04,0.19
			c-0.34-0.67-0.92-1.16-1.66-1.41c-0.41-0.14-0.82-0.21-1.22-0.21c-0.69,0-1.33,0.2-1.9,0.61c-0.54-0.68-1.37-1.08-2.23-1.08
			c-0.76,0-1.49,0.3-2.03,0.84c-0.71-0.54-3.52-2.33-11.04-4.03c-0.36-0.08-1.2-0.32-1.71-0.47c-0.08,0.41-0.15,0.82-0.19,1.23
			c0,0,1.39,0.33,1.66,0.39c7.69,1.71,10.22,3.48,10.65,3.82c-0.15,0.35-0.22,0.73-0.22,1.11c0,1.59,1.29,2.88,2.88,2.88
			c0.18,0,0.35-0.02,0.53-0.05c0.24,1.17,1,2.05,2.17,2.51c0.34,0.13,0.69,0.2,1.03,0.2c0.22,0,0.44-0.03,0.66-0.08
			c0.22,0.55,0.7,1.23,1.79,1.67c0.38,0.15,0.76,0.23,1.13,0.23c0.3,0,0.6-0.05,0.88-0.16c0.52,1.27,1.76,2.11,3.14,2.11
			c0.91,0,1.79-0.37,2.43-1.03c0.55,0.3,1.71,0.86,2.87,0.86c0.15,0,0.29-0.01,0.44-0.03c1.16-0.15,1.7-0.6,1.95-0.95
			c0.04-0.06,0.09-0.13,0.12-0.19c0.27,0.08,0.58,0.14,0.92,0.14c0.63,0,1.24-0.22,1.86-0.66c0.6-0.44,1.03-1.06,1.1-1.59
			c0-0.01,0-0.02,0-0.02c0.2,0.04,0.41,0.06,0.62,0.06c0.65,0,1.3-0.2,1.91-0.61c1.18-0.78,1.39-1.79,1.37-2.45
			c0.21,0.04,0.42,0.07,0.63,0.07c0.61,0,1.21-0.18,1.79-0.55c0.73-0.47,1.18-1.19,1.24-2.02c0.05-0.57-0.09-1.14-0.39-1.63
			c1.98-0.85,6.52-2.51,11.86-3.71c-0.03-0.41-0.09-0.82-0.17-1.23C51.57,18.71,46.75,20.79,45.55,21.33z M27.49,31.77
			c-1.25,0-2.27-0.98-2.32-2.22c0-0.11-0.01-0.39-0.25-0.39c-0.1,0-0.18,0.06-0.28,0.15c-0.28,0.26-0.63,0.52-1.14,0.52
			c-0.23,0-0.49-0.05-0.75-0.16c-1.32-0.54-1.34-1.45-1.29-1.81c0.01-0.1,0.02-0.2-0.05-0.28l-0.08-0.07h-0.08
			c-0.07,0-0.14,0.03-0.23,0.09c-0.38,0.27-0.75,0.4-1.12,0.4c-0.21,0-0.42-0.04-0.63-0.12c-1.74-0.68-1.61-2.32-1.52-2.82
			c0.01-0.1-0.01-0.18-0.08-0.23l-0.12-0.1l-0.12,0.11c-0.34,0.33-0.78,0.51-1.25,0.51c-1,0-1.81-0.81-1.81-1.81
			c0-1,0.81-1.81,1.81-1.81c0.9,0,1.67,0.68,1.79,1.58l0.06,0.49l0.27-0.41c0.03-0.05,0.76-1.15,2.11-1.15
			c0.26,0,0.52,0.04,0.79,0.12c1.07,0.33,1.25,1.3,1.28,1.7c0.02,0.24,0.19,0.25,0.22,0.25c0.09,0,0.16-0.06,0.21-0.11
			c0.2-0.21,0.64-0.56,1.33-0.56c0.32,0,0.65,0.08,1,0.22c1.7,0.73,0.93,2.9,0.92,2.92c-0.15,0.36-0.15,0.52-0.01,0.61l0.07,0.03
			h0.05c0.08,0,0.17-0.03,0.33-0.09c0.23-0.08,0.58-0.2,0.91-0.2h0c1.28,0.01,2.33,1.06,2.33,2.33
			C29.81,30.73,28.77,31.77,27.49,31.77z"/>
	</g>
	<g>
		<g>
			<path class="st0" d="M155.77,5.94c-1.07-1.34-2.7-2.01-4.88-2.01c-2.18,0-3.81,0.67-4.88,2.01c-1.07,1.34-1.61,2.93-1.61,4.76
				c0,1.86,0.54,3.45,1.61,4.78c1.07,1.32,2.7,1.98,4.88,1.98c2.18,0,3.81-0.66,4.88-1.98c1.07-1.32,1.61-2.92,1.61-4.78
				C157.38,8.86,156.84,7.28,155.77,5.94z M153.12,13.64c-0.52,0.69-1.26,1.03-2.24,1.03c-0.97,0-1.72-0.34-2.24-1.03
				c-0.52-0.69-0.79-1.67-0.79-2.94c0-1.27,0.26-2.25,0.79-2.93c0.52-0.69,1.27-1.03,2.24-1.03c0.97,0,1.72,0.34,2.24,1.03
				c0.52,0.69,0.78,1.66,0.78,2.93C153.9,11.96,153.64,12.95,153.12,13.64z"/>
			<path class="st0" d="M128.4,4.82c-1.09-0.55-2.33-0.83-3.73-0.83c-2.15,0-3.67,0.56-4.55,1.68c-0.56,0.72-0.87,1.63-0.94,2.75
				h3.21c0.08-0.49,0.24-0.88,0.47-1.17c0.33-0.39,0.89-0.58,1.69-0.58c0.71,0,1.25,0.1,1.62,0.3c0.37,0.2,0.55,0.56,0.55,1.08
				c0,0.43-0.24,0.74-0.72,0.95c-0.27,0.12-0.71,0.21-1.33,0.29l-1.14,0.14c-1.29,0.16-2.28,0.44-2.94,0.82
				c-1.22,0.7-1.82,1.83-1.82,3.4c0,1.21,0.38,2.14,1.13,2.8c0.75,0.66,1.71,0.93,2.87,0.99c7.27,0.32,7.18-3.83,7.25-4.69V7.95
				C130.03,6.41,129.49,5.37,128.4,4.82z M126.71,12.07c-0.02,1.11-0.34,1.88-0.95,2.3c-0.61,0.42-1.28,0.63-2.01,0.63
				c-0.46,0-0.85-0.13-1.17-0.38c-0.32-0.25-0.48-0.66-0.48-1.23c0-0.64,0.26-1.11,0.78-1.41c0.31-0.18,0.82-0.33,1.53-0.45
				l0.76-0.14c0.38-0.07,0.67-0.15,0.89-0.23c0.22-0.08,0.43-0.19,0.64-0.32V12.07z"/>
			<path class="st0" d="M111.83,6.83c0.83,0,1.44,0.26,1.83,0.77c0.27,0.38,0.44,0.81,0.5,1.28h3.58c-0.2-1.81-0.83-3.07-1.9-3.79
				c-1.07-0.71-2.44-1.07-4.12-1.07c-1.97,0-3.52,0.61-4.64,1.82c-1.12,1.21-1.68,2.91-1.68,5.08c0,1.93,0.51,3.5,1.52,4.71
				c1.02,1.21,2.6,1.82,4.75,1.82c2.16,0,3.78-0.73,4.88-2.18c0.69-0.9,1.07-1.85,1.15-2.86h-3.57c-0.07,0.67-0.28,1.21-0.63,1.63
				c-0.34,0.42-0.93,0.63-1.75,0.63c-1.16,0-1.94-0.53-2.36-1.58c-0.23-0.56-0.34-1.31-0.34-2.24c0-0.97,0.12-1.76,0.34-2.35
				C109.85,7.39,110.65,6.83,111.83,6.83z"/>
			<path class="st0" d="M104.45,4.03c-7.36,0-6.93,6.52-6.93,6.52v6.62h3.34v-6.21c0-1.02,0.13-1.77,0.38-2.26
				c0.46-0.87,1.35-1.3,2.69-1.3c0.1,0,0.23,0.01,0.4,0.01c0.16,0.01,0.35,0.02,0.56,0.05v-3.4c-0.15-0.01-0.24-0.01-0.29-0.02
				C104.56,4.03,104.51,4.03,104.45,4.03z"/>
			<path class="st0" d="M92.18,13.71c-0.14,0.2-0.29,0.37-0.46,0.51c-0.47,0.39-1.11,0.51-1.87,0.51c-0.71,0-1.27-0.11-1.78-0.43
				c-0.83-0.51-1.3-1.38-1.35-2.65h9.24c0.01-1.1-0.02-1.93-0.11-2.52c-0.15-0.99-0.49-1.87-1.01-2.62
				c-0.58-0.85-1.31-1.48-2.19-1.88c-0.88-0.39-1.88-0.59-2.98-0.59c-1.86,0-3.37,0.59-4.54,1.76c-1.17,1.17-1.75,2.86-1.75,5.06
				c0,2.35,0.65,4.04,1.94,5.08c1.29,1.04,2.78,1.56,4.47,1.56c2.05,0,3.64-0.62,4.77-1.85c0.61-0.65,1-1.29,1.16-1.93H92.18z
				 M87.69,7.49c0.47-0.48,1.13-0.72,1.98-0.72c0.78,0,1.44,0.23,1.97,0.68c0.53,0.46,0.82,1.13,0.88,2H86.8
				C86.92,8.63,87.22,7.97,87.69,7.49z"/>
			<g>
				<path class="st0" d="M82.04,17.17h-3.05V9.48c0-0.7-0.23-2.37-2.24-2.37c-1.34,0-2.31,0.97-2.31,2.37v7.68h-3.05V9.48
					c0-0.7-0.21-2.37-2.22-2.37c-1.37,0-2.31,0.97-2.31,2.37v7.68h-3.05V9.56c0-3.17,2.1-5.57,5.37-5.57c1.62,0,2.94,0.68,3.79,1.77
					c0.9-1.09,2.24-1.77,3.79-1.77c3.33,0,5.3,2.3,5.3,5.57V17.17z"/>
			</g>
			<path class="st0" d="M143.42,0.02c0,0-3.36-0.36-3.36,2.34l0,3.58c-0.37-0.6-0.86-1.07-1.45-1.4c-0.6-0.34-1.28-0.51-2.05-0.51
				c-1.67,0-3,0.62-4,1.86c-1,1.24-1.5,3.03-1.5,5.2c0,1.88,0.51,3.42,1.52,4.62c1.01,1.2,3,1.72,4.76,1.72
				c6.15,0,6.08-5.28,6.08-5.28L143.42,0.02z M139.41,13.66c-0.49,0.7-1.2,1.05-2.14,1.05c-0.94,0-1.64-0.35-2.1-1.05
				c-0.46-0.7-0.69-1.73-0.69-2.9c0-1.09,0.23-2,0.68-2.73c0.45-0.73,1.16-1.1,2.14-1.1c0.64,0,1.2,0.2,1.68,0.61
				c0.78,0.67,1.18,1.87,1.18,3.42C140.14,12.06,139.9,12.96,139.41,13.66z"/>
		</g>
		<g>
			<g>
				<path class="st1" d="M87.93,38.37c0,0.45-0.16,0.84-0.49,1.16c-0.33,0.32-0.72,0.49-1.18,0.49h-1.67V28.41
					c0-2.26,0.76-3.67,2.01-4.63c0.83-0.63,2.06-1.23,4.37-1.23c1.56,0,3.39,0.61,4.37,1.81c1.11,1.35,1.57,2.86,1.57,4.83
					c0,2.04-0.49,3.68-1.47,4.94c-0.98,1.23-2.24,1.84-3.78,1.84c-0.82,0-1.54-0.15-2.16-0.43c-0.66-0.32-1.18-0.82-1.57-1.5V38.37z
					 M93.53,29.33c0-1.26-0.25-2.23-0.74-2.91c-0.49-0.68-1.19-1.02-2.11-1.02c-0.88,0-1.57,0.34-2.06,1.02
					c-0.46,0.61-0.68,1.59-0.68,2.91c0,1.23,0.24,2.15,0.74,2.76c0.49,0.68,1.19,1.02,2.11,1.02c0.85,0,1.52-0.34,2.01-1.02
					C93.29,31.41,93.53,30.5,93.53,29.33"/>
				<path class="st1" d="M119.05,34.9v-0.82c-0.58,0.91-1.36,1.47-2.34,1.69c-0.98,0.22-1.95,0.14-2.92-0.24
					c-0.97-0.39-1.79-1.1-2.49-2.15c-0.69-1.05-1.04-2.43-1.04-4.14c0-2,0.46-3.62,1.37-4.86c0.92-1.24,2.39-1.81,4.41-1.86
					c2-0.05,3.16,0.4,4.29,1.26c1.24,0.94,1.98,2.39,1.98,4.65v6.83c0,2.17-1.51,6.2-6.27,5.86c-2.95-0.21-4.59-1.42-5.5-4.16h3.52
					c0.26,0.45,0.65,0.8,1.18,1.04c0.53,0.25,1.06,0.31,1.59,0.19c0.53-0.11,1.01-0.43,1.45-0.94
					C118.74,36.71,118.99,35.93,119.05,34.9 M113.55,29.33c0,2.23,0.64,3.46,1.93,3.7c1.28,0.24,2.23-0.06,2.85-0.9
					c0.29-0.35,0.5-0.91,0.63-1.67c0.13-0.76,0.14-1.51,0.02-2.25c-0.11-0.74-0.38-1.41-0.8-1.99c-0.42-0.58-1.03-0.87-1.83-0.87
					c-1.09,0-1.83,0.41-2.22,1.21C113.75,27.38,113.55,28.3,113.55,29.33"/>
				<path class="st1" d="M107.42,23.43c-1.09-0.55-2.33-0.83-3.73-0.83c-2.15,0-3.67,0.56-4.55,1.68c-0.55,0.72-0.87,1.63-0.94,2.75
					h3.21c0.08-0.49,0.24-0.88,0.47-1.17c0.33-0.39,0.9-0.58,1.69-0.58c0.71,0,1.25,0.1,1.62,0.3c0.37,0.2,0.55,0.56,0.55,1.08
					c0,0.43-0.24,0.74-0.72,0.95c-0.27,0.12-0.71,0.21-1.33,0.29l-1.14,0.14c-1.29,0.16-2.28,0.44-2.94,0.82
					c-1.22,0.7-1.83,1.83-1.83,3.4c0,1.21,0.38,2.14,1.13,2.8c0.75,0.66,1.71,0.93,2.87,0.99c7.26,0.32,7.18-3.83,7.25-4.69v-4.78
					C109.05,25.02,108.5,23.98,107.42,23.43 M105.73,30.68c-0.02,1.11-0.34,1.88-0.95,2.3c-0.61,0.42-1.28,0.63-2.01,0.63
					c-0.46,0-0.85-0.13-1.17-0.38c-0.32-0.25-0.48-0.66-0.48-1.23c0-0.64,0.26-1.11,0.79-1.41c0.31-0.18,0.82-0.33,1.53-0.45
					l0.76-0.14c0.38-0.07,0.68-0.15,0.89-0.23c0.22-0.08,0.43-0.19,0.64-0.32V30.68z"/>
				<path class="st1" d="M134.97,24.48c-1.07-1.34-2.7-2.01-4.88-2.01c-2.18,0-3.8,0.67-4.88,2.01c-1.07,1.34-1.61,2.93-1.61,4.76
					c0,1.86,0.54,3.45,1.61,4.78c1.07,1.32,2.7,1.98,4.88,1.98c2.18,0,3.81-0.66,4.88-1.98c1.07-1.32,1.6-2.91,1.6-4.78
					C136.57,27.4,136.04,25.82,134.97,24.48 M132.31,32.17c-0.52,0.69-1.26,1.04-2.23,1.04c-0.97,0-1.72-0.34-2.24-1.04
					c-0.53-0.69-0.79-1.67-0.79-2.94c0-1.27,0.26-2.25,0.79-2.93c0.52-0.69,1.27-1.03,2.24-1.03c0.97,0,1.71,0.34,2.23,1.03
					c0.52,0.68,0.78,1.66,0.78,2.93C133.09,30.5,132.83,31.49,132.31,32.17"/>
			</g>
		</g>
	</g>
</g>
</svg>
